	<svg width="198.84160156250002" height="187.45600128173828"
					viewBox="0 0 198.84160156250002 187.45600128173828" class="css-1j8o68f">
					<defs id="SvgjsDefs1031"></defs>
					<g id="SvgjsG1032" featurekey="ECw45b-0"
						transform="matrix(0.7105263157894737,0,0,0.7105263157894737,-7.078947368421055,-29.078947368421055)"
						fill="#ffffff">
						<path xmlns="http://www.w3.org/2000/svg"
							d="M240,185c2.8,0,5-2.2,5-5s-2.2-5-5-5h-15v-10h15c2.8,0,5-2.2,5-5s-2.2-5-5-5h-15v-10h14c2.8,0,5-2.2,5-5s-2.2-5-5-5h-14v-10  h14c2.8,0,5-2.2,5-5s-2.2-5-5-5h-14v-10h14c2.8,0,5-2.2,5-5s-2.2-5-5-5h-14V85h14c2.8,0,5-2.2,5-5s-2.2-5-5-5h-14V60  c0-2.8-2.2-5-5-5s-5,2.2-5,5v14h-10V60c0-2.8-2.2-5-5-5s-5,2.2-5,5v14h-10V60c0-2.8-2.2-5-5-5s-5,2.2-5,5v14h-10V60c0-2.8-2.2-5-5-5  s-5,2.2-5,5v14h-10V60c0-2.8-2.2-5-5-5s-5,2.2-5,5v14h-10V60c0-2.8-2.2-5-5-5s-5,2.2-5,5v14h-10V60c0-2.8-2.2-5-5-5s-5,2.2-5,5v14  H85V60c0-2.8-2.2-5-5-5s-5,2.2-5,5v15H60c-2.8,0-5,2.2-5,5s2.2,5,5,5h15v10H60c-2.8,0-5,2.2-5,5s2.2,5,5,5h15v10H60  c-2.8,0-5,2.2-5,5s2.2,5,5,5h15v10H60c-2.8,0-5,2.2-5,5s2.2,5,5,5h15v10H61c-2.8,0-5,2.2-5,5s2.2,5,5,5h14v10H61c-2.8,0-5,2.2-5,5  s2.2,5,5,5h14v10H61c-2.8,0-5,2.2-5,5s2.2,5,5,5h14v10H61c-2.8,0-5,2.2-5,5s2.2,5,5,5h14v14c0,2.8,2.2,5,5,5s5-2.2,5-5v-15h10v15  c0,2.8,2.2,5,5,5s5-2.2,5-5v-15h10v15c0,2.8,2.2,5,5,5s5-2.2,5-5v-15h10v15c0,2.8,2.2,5,5,5s5-2.2,5-5v-15h10v15c0,2.8,2.2,5,5,5  s5-2.2,5-5v-15h10v15c0,2.8,2.2,5,5,5s5-2.2,5-5v-15h10v15c0,2.8,2.2,5,5,5s5-2.2,5-5v-15h10v15c0,2.8,2.2,5,5,5s5-2.2,5-5v-14h15  c2.8,0,5-2.2,5-5s-2.2-5-5-5h-15v-10h15c2.8,0,5-2.2,5-5s-2.2-5-5-5h-15v-10H240z M215,214H85V84h130V214z M188,136.5v-20.2  c0-2.8-2.2-5.2-5-5.2h-66c-2.8,0-5,2.5-5,5.2v46.2c0,0,0,0,0,0v19.7c0,2.8,2.2,4.8,5,4.8h66c2.8,0,5-2,5-4.8V136.5  C188,136.5,188,136.5,188,136.5z M178,154.4L155.2,177h-5.9l28.7-28.4V154.4z M129.3,177l48.7-48.4v5.9L135.2,177H129.3z M122,144.6  l23.3-23.6h5.9L122,150.4V144.6z M122,164.6l43.3-43.6h5.9L122,170.4V164.6z M131.2,121l-9.2,9.4V121H131.2z M169.3,177l8.7-8.4v8.4  H169.3z">
						</path>
					</g>
					<g id="SvgjsG1033" featurekey="6sJQsk-0"
						transform="matrix(1.6,0,0,1.6,-1.1199989318847656,155.45600128173828)" fill="#ffffff">
						<path
							d="M11.38 7.48 l-4.26 0 l0 4.18 l1.22 1.06 l-1.22 1.06 l0 6.22 l-2.14 0 l0 -6.22 l-1.22 -1.06 l1.22 -1.06 l0 -4.18 l-4.28 0 l0 -2.14 l10.68 0 l0 2.14 z M19.832 12.719999999999999 l-1.22 1.08 l0 6.2 l-2.14 0 l0 -6.2 l-1.22 -1.08 l1.22 -1.06 l0 -6.32 l2.14 0 l0 6.32 z M39.704 12.719999999999999 l-1.22 1.06 l0 6.22 l-2.14 0 l0 -10.86 l-3.56 6.7 l-2.24 0 l-3.56 -6.7 l0 10.86 l-2.14 0 l0 -6.22 l-1.22 -1.06 l1.22 -1.08 l0 -6.3 l2.34 0 l4.48 8.26 l4.48 -8.26 l2.34 0 l0 6.3 z M53.296 19.98 l-8.86 0 l0 -6.2 l-1.22 -1.08 l1.22 -1.06 l0 -6.3 l8.86 0 l0 2.14 l-6.72 0 l0 4.16 l5.18 0 l0 2.14 l-5.18 0 l0 4.06 l6.72 0 l0 2.14 z M78.34 7.48 l-4.26 0 l0 4.18 l1.22 1.06 l-1.22 1.06 l0 6.22 l-2.14 0 l0 -6.22 l-1.22 -1.06 l1.22 -1.06 l0 -4.18 l-4.28 0 l0 -2.14 l10.68 0 l0 2.14 z M92.012 19.98 l-8.86 0 l0 -6.2 l-1.22 -1.08 l1.22 -1.06 l0 -6.3 l8.86 0 l0 2.14 l-6.72 0 l0 4.16 l5.18 0 l0 2.14 l-5.18 0 l0 4.06 l6.72 0 l0 2.14 z M107.924 17.58 l-2.74 2.42 l-5.2 0 l-2.76 -2.42 l0 -3.78 l-1.22 -1.08 l1.22 -1.06 l0 -3.88 l2.76 -2.44 l5.2 0 l2.74 2.44 l0 3.06 l-2.14 0 l0 -2.1 l-1.52 -1.26 l-3.38 0 l-1.52 1.32 l0 7.76 l1.52 1.32 l3.38 0 l1.52 -1.26 l0 -1.8 l2.14 0 l0 2.76 z M124.97600000000001 12.7 l-1.22 1.08 l0 6.2 l-2.14 0 l0 -6.2 l-6.1 0 l0 6.2 l-2.14 0 l0 -6.2 l-1.22 -1.08 l1.22 -1.06 l0 -6.3 l2.14 0 l0 6.3 l6.1 0 l0 -6.3 l2.14 0 l0 6.3 z">
						</path>
					</g>
				</svg>