<?xml version="1.0" encoding="utf-8"?>
<!DOCTYPE svg PUBLIC "-//W3C//DTD SVG 20010904//EN" "http://www.w3.org/TR/2001/REC-SVG-20010904/DTD/svg10.dtd">
<svg version="1.0" xmlns="http://www.w3.org/2000/svg" width="300px" height="86px" viewBox="0 0 300 86" preserveAspectRatio="xMidYMid meet">
 <g fill="#221e1f">
  <path d="M144 80.8 c0 -1.8 1.6 -14.8 3.5 -28.8 2.9 -21.4 3.3 -26.5 2.5 -31.5 -1.4 -8.4 -1.3 -11.5 0.4 -11.5 1.4 0 1.9 1.4 3.2 9.8 0.3 2.4 0.9 4 1.4 3.5 0.4 -0.4 1.3 -5.4 2 -11 l1.2 -10.3 70.5 0 70.5 0 -0.6 2.8 c-0.6 2.7 -10.6 74.3 -10.6 75.5 0 0.4 -28.2 0.8 -62.7 0.9 -59.1 0.3 -62.8 0.4 -62.7 2.1 0.2 1.5 -0.9 1.7 -9.2 1.7 l-9.4 0 0 -3.2z m37.7 -28.5 c-0.2 -1.6 -0.4 -0.5 -0.4 2.2 0 2.8 0.2 4 0.4 2.8 0.2 -1.3 0.2 -3.5 0 -5z m19 0.5 c-0.2 -1.3 -0.4 -0.3 -0.4 2.2 0 2.5 0.2 3.5 0.4 2.3 0.2 -1.3 0.2 -3.3 0 -4.5z m25 -0.5 c-0.2 -1.6 -0.4 -0.5 -0.4 2.2 0 2.8 0.2 4 0.4 2.8 0.2 -1.3 0.2 -3.5 0 -5z m30 0.5 c-0.2 -1.3 -0.4 -0.3 -0.4 2.2 0 2.5 0.2 3.5 0.4 2.3 0.2 -1.3 0.2 -3.3 0 -4.5z m17 0 c-0.2 -1.3 -0.4 -0.3 -0.4 2.2 0 2.5 0.2 3.5 0.4 2.3 0.2 -1.3 0.2 -3.3 0 -4.5z m-91 -19.5 c-0.2 -2.1 -0.4 -0.6 -0.4 3.2 0 3.9 0.2 5.5 0.4 3.8 0.2 -1.8 0.2 -5 0 -7z m19 0 c-0.2 -2.1 -0.4 -0.6 -0.4 3.2 0 3.9 0.2 5.5 0.4 3.8 0.2 -1.8 0.2 -5 0 -7z m25 0 c-0.2 -2.1 -0.4 -0.6 -0.4 3.2 0 3.9 0.2 5.5 0.4 3.8 0.2 -1.8 0.2 -5 0 -7z m30 0 c-0.2 -2.1 -0.4 -0.6 -0.4 3.2 0 3.9 0.2 5.5 0.4 3.8 0.2 -1.8 0.2 -5 0 -7z m17.2 3 c-0.2 -7 -0.6 -6.3 -1.1 2 -0.2 2.6 0 4.7 0.4 4.7 0.5 0 0.7 -3 0.7 -6.7z m-61.1 -14 c-1 -0.2 -2.6 -0.2 -3.5 0 -1 0.3 -0.2 0.5 1.7 0.5 1.9 0 2.7 -0.2 1.8 -0.5z"/>
 </g>
 <g fill="#ffffff">
  <path d="M12.6 82.8 c-0.2 -0.7 -2.5 -16.6 -5.1 -35.3 -2.6 -18.7 -5 -35.5 -5.3 -37.3 l-0.5 -3.2 75 0 75 0 1.3 10.3 c1.2 9.7 1.1 11.4 -1.9 33.7 -1.8 12.9 -3.4 25 -3.8 26.8 l-0.5 3.2 7.6 0 c6.1 0 7.6 0.3 7.6 1.5 0 1.3 -8.9 1.5 -74.5 1.5 -58.8 0 -74.6 -0.3 -74.9 -1.2z m16.4 -33.3 l0 -16.5 5.5 0 c3 0 5.5 -0.4 5.5 -1 0 -0.6 -4.8 -1 -12.4 -1 -7.3 0 -12.7 0.4 -13.1 1 -0.4 0.6 1.5 1 4.9 1 l5.6 0 0 15.8 c0 8.7 0.3 16.2 0.7 16.5 0.3 0.4 1.2 0.7 2 0.7 1 0 1.3 -3.4 1.3 -16.5z m25 4.5 c0 -10 -0.2 -12 -1.5 -12 -1.2 0 -1.5 2 -1.5 12 0 10 0.3 12 1.5 12 1.3 0 1.5 -2 1.5 -12z m15.9 -2 c0.2 -13.5 0.6 -15 4.1 -15 2.6 0 2.8 -0.2 2.1 -2.7 -0.5 -2 -1.5 -2.9 -3.3 -3.1 -2.5 -0.3 -2.6 0 -3.2 5.5 -1.2 11.9 -1.6 29.8 -0.7 27.8 0.5 -1.1 1 -6.7 1 -12.5z m32.6 -0.2 c-0.8 -19.6 -1.1 -20.8 -3.9 -20.8 -2.2 0 -3.6 1.6 -3.6 4.1 0 0.5 1.1 0.9 2.4 0.9 2.4 0 2.4 0.1 3.1 15 0.4 8.4 1.1 15 1.7 15 0.6 0 0.7 -5.4 0.3 -14.2z m24.5 13.3 l-8.5 -0.6 -0.3 -7.7 -0.3 -7.8 7.6 0 c4.3 0 7.5 -0.4 7.5 -1 0 -0.6 -3.2 -1 -7.5 -1 l-7.5 0 0 -7 0 -7 8 0 c4.7 0 8 -0.4 8 -1 0 -0.6 -3.8 -1 -9.5 -1 l-9.5 0 0 17.5 0 17.5 10.3 -0.2 10.2 -0.2 -8.5 -0.5z m-40.5 -3.8 c0.5 -1.9 0.2 -2.3 -1.4 -2.3 -2.3 0 -2.4 0.3 -1.5 3.8 0.7 2.6 1.8 2 2.9 -1.5z"/>
 </g>
 <g fill="#b2b7bb">
  <path d="M178 66 c0 -2.8 0.3 -3 3.5 -3 3.2 0 3.5 0.2 3.5 3 0 2.8 -0.3 3 -3.5 3 -3.2 0 -3.5 -0.2 -3.5 -3z"/>
  <path d="M197 66 l0 -3 10 0 10 0 0 3 0 3 -10 0 -10 0 0 -3z"/>
  <path d="M223.2 67.8 c-0.7 -0.7 -1.2 -2 -1.2 -3 0 -1.6 1.1 -1.8 12 -1.8 12.4 0 13 0.2 11 4.1 -1 1.7 -2.2 1.9 -10.8 1.9 -6.3 0 -10.2 -0.4 -11 -1.2z"/>
  <path d="M251.8 68.5 c-0.3 -0.3 -0.3 -1.7 0 -3 0.4 -2.1 1 -2.5 3.8 -2.5 3.1 0 3.4 0.3 3.4 3 0 2.7 -0.3 3 -3.3 3 -1.9 0 -3.6 -0.2 -3.9 -0.5z"/>
  <path d="M269 66 c0 -2.8 0.3 -3 3.5 -3 3.2 0 3.5 0.2 3.5 3 0 2.8 -0.3 3 -3.5 3 -3.2 0 -3.5 -0.2 -3.5 -3z"/>
  <path d="M178 54.5 l0 -7.5 3.5 0 3.5 0 0 7.5 0 7.5 -3.5 0 -3.5 0 0 -7.5z"/>
  <path d="M197 54.4 l0 -7.5 3.3 0.3 3.2 0.3 0.3 7.3 0.3 7.2 -3.6 0 -3.5 0 0 -7.6z"/>
  <path d="M222 54.5 l0 -7.5 3.5 0 3.5 0 0 7.5 0 7.5 -3.5 0 -3.5 0 0 -7.5z"/>
  <path d="M238.9 61.6 c-0.2 -0.3 -0.3 -2.5 -0.1 -5 0.4 -4.5 0.5 -4.6 3.8 -4.6 l3.4 0 0 5 c0 5 0 5 -3.3 5 -1.9 0 -3.6 -0.2 -3.8 -0.4z"/>
  <path d="M251.9 61.6 c-0.2 -0.2 -0.2 -3.6 -0.1 -7.6 l0.4 -7.1 3.1 0.3 3.2 0.3 0.3 7.3 0.3 7.2 -3.4 0 c-1.8 0 -3.6 -0.2 -3.8 -0.4z"/>
  <path d="M269 54.4 l0 -7.5 3.3 0.3 3.2 0.3 0.3 7.3 0.3 7.2 -3.6 0 -3.5 0 0 -7.6z"/>
  <path d="M178 36.5 l0 -9.5 3.5 0 3.5 0 0 9.5 0 9.5 -3.5 0 -3.5 0 0 -9.5z"/>
  <path d="M197 36.5 l0 -9.5 3.5 0 3.5 0 0 6.4 0 6.5 5.3 0.3 c4.8 0.3 5.2 0.5 5.5 3.1 l0.3 2.7 -9 0 -9.1 0 0 -9.5z"/>
  <path d="M222 36.5 l0 -9.5 3.5 0 3.5 0 0 9.5 0 9.5 -3.5 0 -3.5 0 0 -9.5z"/>
  <path d="M252 45.8 c-0.1 -0.2 -0.2 -4.5 -0.3 -9.6 l-0.2 -9.2 3.8 0 3.7 0 0 6.6 0 6.5 4.8 -0.3 4.7 -0.3 0.3 -6.2 0.3 -6.3 3.4 0 3.5 0 0 9.5 0 9.5 -12 0 c-6.6 0 -12 -0.1 -12 -0.2z"/>
  <path d="M239 31.6 c0 -4.6 0 -4.6 3.6 -4.6 l3.5 0 -0.3 4.3 c-0.3 3.9 -0.5 4.2 -3.5 4.5 -3.3 0.3 -3.3 0.3 -3.3 -4.2z"/>
  <path d="M170 22.3 l0 -3.3 11.5 0 11.5 0 0 3.3 0 3.4 -11.5 0 -11.5 0 0 -3.4z"/>
  <path d="M200.8 25.3 c-3.5 -0.4 -3.8 -0.7 -3.8 -3.4 l0 -3 9.8 0.3 9.7 0.3 0 3 c0 3 0 3 -6 3.1 -3.3 0.1 -7.7 -0.1 -9.7 -0.3z"/>
  <path d="M225.8 25.3 c-2.9 -0.3 -3.8 -0.9 -3.8 -2.3 0 -3 3.2 -4 12.4 -4 6.4 0 8.8 0.4 10 1.6 3 2.9 1.9 4.1 -4.5 4.8 -6.2 0.6 -7.2 0.6 -14.1 -0.1z"/>
  <path d="M252 21.9 c0 -2.8 0.2 -3 3.3 -2.7 2.7 0.2 3.3 0.8 3.5 3.1 0.3 2.5 0.1 2.7 -3.2 2.7 -3.3 0 -3.6 -0.2 -3.6 -3.1z"/>
  <path d="M269 22 c0 -2.8 0.3 -3 3.5 -3 3.2 0 3.5 0.2 3.5 3 0 2.8 -0.3 3 -3.5 3 -3.2 0 -3.5 -0.2 -3.5 -3z"/>
  <path d="M2.1 9.8 l-0.1 -2.8 75.3 0.2 75.2 0.3 -74.7 0.2 -74.7 0.3 -0.4 2.3 c-0.4 1.9 -0.4 1.8 -0.6 -0.5z"/>
 </g>
 <g fill="#0b1624">
  <path d="M22.7 68.3 c-0.4 -0.3 -0.7 -7.8 -0.7 -16.5 l0 -15.8 -5.6 0 -5.5 0 0.3 -3.7 0.3 -3.8 15.8 -0.3 15.7 -0.3 0 4.1 0 4 -5.5 0 -5.5 0 0 16.5 0 16.5 -4.3 0 c-2.4 0 -4.7 -0.3 -5 -0.7z"/>
  <path d="M64.4 67.3 c0.2 -1 0.7 -7.9 1.1 -15.3 0.3 -7.4 0.8 -15.9 1.2 -18.8 l0.5 -5.3 5.7 0.3 5.6 0.3 3.5 13.9 3.4 13.8 2.2 -8.3 c1.2 -4.6 2.9 -11 3.8 -14.1 l1.7 -5.8 5.4 0 c6.5 0 6.1 -1.2 7.1 23.3 l0.6 17.7 -4 0 -4 0 -0.7 -15.2 -0.8 -15.3 -4.1 14.5 -4.2 14.5 -3.5 0.3 -3.5 0.3 -2.7 -9.8 c-1.4 -5.4 -2.9 -11.8 -3.3 -14.3 -1.1 -7 -2.2 -2.2 -2.3 10 -0.2 14.3 -0.4 15 -5.3 15 -3.3 0 -3.9 -0.3 -3.4 -1.7z"/>
  <path d="M112 48.5 l0 -20.5 12.5 0 12.5 0 0 4 0 4 -8 0 -8 0 0 4 0 4 7.5 0 7.5 0 0 4 0 4 -7.6 0 -7.5 0 0.3 4.8 0.3 4.7 8.3 0.3 8.2 0.3 0 3.4 0 3.5 -13 0 -13 0 0 -20.5z"/>
 </g>
 <g fill="#ee3d22">
  <path d="M48 54 l0 -15 4.5 0 4.5 0 0 15 0 15 -4.5 0 -4.5 0 0 -15z"/>
  <path d="M49.2 35.8 c-4 -4 1.4 -9.6 6.3 -6.4 3 2 3.2 3.7 0.7 5.9 -2.2 2 -5.3 2.2 -7 0.5z"/>
 </g>
 <g fill="#494748">
 </g>
</svg>